<svg width="25" height="25" viewBox="0 0 25 25" fill="none" xmlns="http://www.w3.org/2000/svg">
<path d="M0.989563 20.8333V18.3854C0.989563 17.7778 1.14581 17.2266 1.45831 16.7318C1.77081 16.237 2.20484 15.8681 2.7604 15.625C4.02776 15.0694 5.16925 14.6701 6.18488 14.4271C7.2005 14.184 8.24651 14.0625 9.3229 14.0625C10.3993 14.0625 11.441 14.184 12.4479 14.4271C13.4548 14.6701 14.592 15.0694 15.8594 15.625C16.4149 15.8681 16.8533 16.237 17.1745 16.7318C17.4956 17.2266 17.6562 17.7778 17.6562 18.3854V20.8333H0.989563ZM19.2187 20.8333V18.3854C19.2187 17.2917 18.941 16.3932 18.3854 15.6901C17.8298 14.987 17.1007 14.4184 16.1979 13.9844C17.3958 14.1233 18.5243 14.3273 19.5833 14.5963C20.6423 14.8654 21.5017 15.1736 22.1614 15.5208C22.7344 15.8507 23.1857 16.2587 23.5156 16.7448C23.8455 17.2309 24.0104 17.7778 24.0104 18.3854V20.8333H19.2187ZM9.3229 12.474C8.17706 12.474 7.23956 12.1094 6.5104 11.3802C5.78123 10.651 5.41665 9.71354 5.41665 8.5677C5.41665 7.42187 5.78123 6.48437 6.5104 5.7552C7.23956 5.02604 8.17706 4.66145 9.3229 4.66145C10.4687 4.66145 11.4062 5.02604 12.1354 5.7552C12.8646 6.48437 13.2291 7.42187 13.2291 8.5677C13.2291 9.71354 12.8646 10.651 12.1354 11.3802C11.4062 12.1094 10.4687 12.474 9.3229 12.474ZM18.6979 8.5677C18.6979 9.71354 18.3333 10.651 17.6041 11.3802C16.875 12.1094 15.9375 12.474 14.7916 12.474C14.6007 12.474 14.388 12.4609 14.1536 12.4349C13.9193 12.4088 13.7066 12.3611 13.5156 12.2917C13.9323 11.8576 14.2491 11.3238 14.4661 10.6901C14.6831 10.0564 14.7916 9.34895 14.7916 8.5677C14.7916 7.78645 14.6831 7.09635 14.4661 6.49739C14.2491 5.89843 13.9323 5.34722 13.5156 4.84374C13.7066 4.79166 13.9193 4.74826 14.1536 4.71354C14.388 4.67881 14.6007 4.66145 14.7916 4.66145C15.9375 4.66145 16.875 5.02604 17.6041 5.7552C18.3333 6.48437 18.6979 7.42187 18.6979 8.5677ZM2.55206 19.2708H16.0937V18.3854C16.0937 18.1076 16.0113 17.8385 15.8463 17.5781C15.6814 17.3177 15.4774 17.1354 15.2344 17.0312C13.9844 16.4757 12.934 16.1024 12.0833 15.9115C11.2326 15.7205 10.3125 15.625 9.3229 15.625C8.33331 15.625 7.40883 15.7205 6.54946 15.9115C5.69008 16.1024 4.6354 16.4757 3.3854 17.0312C3.14234 17.1354 2.94269 17.3177 2.78644 17.5781C2.63019 17.8385 2.55206 18.1076 2.55206 18.3854V19.2708ZM9.3229 10.9115C9.99998 10.9115 10.5599 10.6901 11.0026 10.2474C11.4453 9.80468 11.6666 9.24479 11.6666 8.5677C11.6666 7.89062 11.4453 7.33072 11.0026 6.88802C10.5599 6.44531 9.99998 6.22395 9.3229 6.22395C8.64581 6.22395 8.08592 6.44531 7.64321 6.88802C7.2005 7.33072 6.97915 7.89062 6.97915 8.5677C6.97915 9.24479 7.2005 9.80468 7.64321 10.2474C8.08592 10.6901 8.64581 10.9115 9.3229 10.9115Z" fill="white" fill-opacity="0.8"/>
</svg>
