<svg width="31" height="31" viewBox="0 0 31 31" fill="none" xmlns="http://www.w3.org/2000/svg">
<path d="M19.149 28.4167C17.2521 28.4167 15.4593 28.0668 13.7706 27.3672C12.0819 26.6675 10.5963 25.7213 9.31391 24.5285C8.0315 23.3356 7.01969 21.9404 6.27849 20.3427C5.53729 18.7449 5.16669 17.0487 5.16669 15.254C5.16669 13.4374 5.53804 11.7272 6.28075 10.1234C7.02346 8.51961 8.03526 7.1203 9.31617 5.92551C10.5971 4.73072 12.0819 3.78349 13.7706 3.08384C15.4593 2.38419 17.2521 2.03436 19.149 2.03436C20.1608 2.03436 21.108 2.142 21.9906 2.35728C22.8733 2.57256 23.7236 2.86318 24.5417 3.22915C22.6042 4.60693 21.0327 6.32915 19.8271 8.39582C18.6215 10.4625 18.0188 12.7391 18.0188 15.2255C18.0188 17.712 18.6215 19.9939 19.8271 22.0713C21.0327 24.1488 22.6042 25.8656 24.5417 27.2219C23.7236 27.5878 22.8733 27.8785 21.9906 28.0937C21.108 28.309 20.1608 28.4167 19.149 28.4167ZM19.149 26.4792H20.0021C20.2729 26.4792 20.4945 26.4684 20.6667 26.4469C19.2459 24.8538 18.1264 23.1101 17.3084 21.2156C16.4903 19.3212 16.0813 17.3299 16.0813 15.2417C16.0813 13.1535 16.4903 11.1621 17.3084 9.2677C18.1264 7.37325 19.2459 5.61874 20.6667 4.00415C20.4945 3.98263 20.2729 3.97186 20.0021 3.97186H19.149C15.8552 3.97186 13.0243 5.06937 10.6563 7.26439C8.28821 9.45942 7.10419 12.1181 7.10419 15.2404C7.10419 18.3628 8.28821 21.0165 10.6563 23.2016C13.0243 25.3866 15.8552 26.4792 19.149 26.4792Z" fill="white"/>
</svg>
