<svg width="30" height="30" viewBox="0 0 30 30" fill="none" xmlns="http://www.w3.org/2000/svg">
<path d="M14.9927 19.375C16.2059 19.375 17.2396 18.9504 18.0938 18.1011C18.9479 17.2518 19.375 16.2206 19.375 15.0073C19.375 13.7941 18.9504 12.7604 18.1011 11.9062C17.2518 11.0521 16.2206 10.625 15.0073 10.625C13.7941 10.625 12.7604 11.0496 11.9062 11.8989C11.0521 12.7482 10.625 13.7794 10.625 14.9927C10.625 16.2059 11.0496 17.2396 11.8989 18.0938C12.7482 18.9479 13.7794 19.375 14.9927 19.375ZM15 21.25C13.2708 21.25 11.7969 20.6406 10.5781 19.4219C9.35938 18.2031 8.75 16.7292 8.75 15C8.75 13.2708 9.35938 11.7969 10.5781 10.5781C11.7969 9.35938 13.2708 8.75 15 8.75C16.7292 8.75 18.2031 9.35938 19.4219 10.5781C20.6406 11.7969 21.25 13.2708 21.25 15C21.25 16.7292 20.6406 18.2031 19.4219 19.4219C18.2031 20.6406 16.7292 21.25 15 21.25ZM2.1875 15.9375C1.92188 15.9375 1.69922 15.8471 1.51953 15.6664C1.33984 15.4857 1.25 15.2617 1.25 14.9945C1.25 14.7273 1.33984 14.5052 1.51953 14.3281C1.69922 14.151 1.92188 14.0625 2.1875 14.0625H5.3125C5.57812 14.0625 5.80078 14.1529 5.98047 14.3336C6.16016 14.5143 6.25 14.7383 6.25 15.0055C6.25 15.2727 6.16016 15.4948 5.98047 15.6719C5.80078 15.849 5.57812 15.9375 5.3125 15.9375H2.1875ZM24.6875 15.9375C24.4219 15.9375 24.1992 15.8471 24.0195 15.6664C23.8398 15.4857 23.75 15.2617 23.75 14.9945C23.75 14.7273 23.8398 14.5052 24.0195 14.3281C24.1992 14.151 24.4219 14.0625 24.6875 14.0625H27.8125C28.0781 14.0625 28.3008 14.1529 28.4805 14.3336C28.6602 14.5143 28.75 14.7383 28.75 15.0055C28.75 15.2727 28.6602 15.4948 28.4805 15.6719C28.3008 15.849 28.0781 15.9375 27.8125 15.9375H24.6875ZM14.9945 6.25C14.7273 6.25 14.5052 6.16016 14.3281 5.98047C14.151 5.80078 14.0625 5.57812 14.0625 5.3125V2.1875C14.0625 1.92188 14.1529 1.69922 14.3336 1.51953C14.5143 1.33984 14.7383 1.25 15.0055 1.25C15.2727 1.25 15.4948 1.33984 15.6719 1.51953C15.849 1.69922 15.9375 1.92188 15.9375 2.1875V5.3125C15.9375 5.57812 15.8471 5.80078 15.6664 5.98047C15.4857 6.16016 15.2617 6.25 14.9945 6.25ZM14.9945 28.75C14.7273 28.75 14.5052 28.6602 14.3281 28.4806C14.151 28.3008 14.0625 28.0781 14.0625 27.8125V24.6875C14.0625 24.4219 14.1529 24.1992 14.3336 24.0195C14.5143 23.8398 14.7383 23.75 15.0055 23.75C15.2727 23.75 15.4948 23.8398 15.6719 24.0195C15.849 24.1992 15.9375 24.4219 15.9375 24.6875V27.8125C15.9375 28.0781 15.8471 28.3008 15.6664 28.4806C15.4857 28.6602 15.2617 28.75 14.9945 28.75ZM7.5 8.8125L5.71875 7.0625C5.53125 6.875 5.44136 6.64997 5.44909 6.38741C5.4568 6.12482 5.54561 5.90086 5.71553 5.71553C5.90086 5.53018 6.12482 5.4375 6.38741 5.4375C6.64997 5.4375 6.875 5.53125 7.0625 5.71875L8.8125 7.5C8.97917 7.6875 9.0625 7.90625 9.0625 8.15625C9.0625 8.40625 8.97917 8.61979 8.8125 8.79688C8.64583 8.97396 8.43229 9.0625 8.17188 9.0625C7.91146 9.0625 7.6875 8.97917 7.5 8.8125ZM22.9375 24.2812L21.1875 22.5C21.0208 22.3125 20.9375 22.0898 20.9375 21.832C20.9375 21.5742 21.026 21.3594 21.2031 21.1875C21.3802 21 21.5938 20.9062 21.8438 20.9062C22.0938 20.9062 22.3125 21 22.5 21.1875L24.2812 22.9375C24.4688 23.125 24.5586 23.35 24.5509 23.6126C24.5432 23.8752 24.4544 24.0991 24.2845 24.2845C24.0991 24.4698 23.8752 24.5625 23.6126 24.5625C23.35 24.5625 23.125 24.4688 22.9375 24.2812ZM21.1875 8.8125C21 8.625 20.9062 8.40625 20.9062 8.15625C20.9062 7.90625 21 7.6875 21.1875 7.5L22.9375 5.71875C23.125 5.53125 23.35 5.44136 23.6126 5.44909C23.8752 5.4568 24.0991 5.54561 24.2845 5.71553C24.4698 5.90086 24.5625 6.12482 24.5625 6.38741C24.5625 6.64997 24.4688 6.875 24.2812 7.0625L22.5 8.8125C22.3333 8.97917 22.1212 9.0625 21.8636 9.0625C21.6061 9.0625 21.3807 8.97917 21.1875 8.8125ZM5.71553 24.2845C5.53018 24.0991 5.4375 23.8752 5.4375 23.6126C5.4375 23.35 5.53125 23.125 5.71875 22.9375L7.5 21.1875C7.68333 21 7.90104 20.9062 8.15312 20.9062C8.40521 20.9062 8.62093 21 8.80028 21.1875C8.99593 21.375 9.09375 21.5938 9.09375 21.8438C9.09375 22.0938 9 22.3125 8.8125 22.5L7.0625 24.2812C6.875 24.4688 6.64997 24.5586 6.38741 24.5509C6.12482 24.5432 5.90086 24.4544 5.71553 24.2845Z" fill="white"/>
</svg>
