<svg width="22" height="22" viewBox="0 0 22 22" fill="none" xmlns="http://www.w3.org/2000/svg">
<path d="M8.10732 13.2229C7.75937 13.2229 7.46699 13.1028 7.23019 12.8625C6.99338 12.6223 6.87498 12.3282 6.87498 11.9803C6.87498 11.6323 6.9951 11.3399 7.23534 11.1031C7.4756 10.8663 7.7697 10.7479 8.11764 10.7479C8.46559 10.7479 8.75797 10.868 8.99477 11.1083C9.23158 11.3485 9.34998 11.6426 9.34998 11.9906C9.34998 12.3385 9.22986 12.6309 8.98961 12.8677C8.74936 13.1045 8.45526 13.2229 8.10732 13.2229ZM13.9052 13.2229C13.5573 13.2229 13.2649 13.1028 13.0281 12.8625C12.7913 12.6223 12.6729 12.3282 12.6729 11.9803C12.6729 11.6323 12.793 11.3399 13.0333 11.1031C13.2735 10.8663 13.5676 10.7479 13.9156 10.7479C14.2635 10.7479 14.5559 10.868 14.7927 11.1083C15.0295 11.3485 15.1479 11.6426 15.1479 11.9906C15.1479 12.3385 15.0278 12.6309 14.7875 12.8677C14.5473 13.1045 14.2532 13.2229 13.9052 13.2229ZM11 18.7917C13.1752 18.7917 15.0176 18.0358 16.5272 16.5241C18.0368 15.0124 18.7916 13.1675 18.7916 10.9893C18.7916 10.5992 18.7611 10.2132 18.7 9.83124C18.6389 9.4493 18.5625 9.09791 18.4708 8.77708C18.1653 8.85347 17.8348 8.90694 17.4794 8.9375C17.124 8.96805 16.7517 8.98333 16.3625 8.98333C14.8788 8.98333 13.4766 8.67777 12.156 8.06666C10.8353 7.45555 9.70901 6.58472 8.77706 5.45416C8.25762 6.69166 7.51283 7.77256 6.54269 8.69687C5.57255 9.62118 4.46109 10.3354 3.20831 10.8396V11C3.20831 13.1752 3.96313 15.0176 5.47275 16.5272C6.9824 18.0368 8.82481 18.7917 11 18.7917ZM11 20.1667C9.73192 20.1667 8.54026 19.926 7.42498 19.4448C6.3097 18.9635 5.33956 18.3104 4.51456 17.4854C3.68956 16.6604 3.03644 15.6903 2.55519 14.575C2.07394 13.4597 1.83331 12.2681 1.83331 11C1.83331 9.73194 2.07394 8.54027 2.55519 7.42499C3.03644 6.30972 3.68956 5.33958 4.51456 4.51458C5.33956 3.68958 6.3097 3.03645 7.42498 2.5552C8.54026 2.07395 9.73192 1.83333 11 1.83333C12.268 1.83333 13.4597 2.07395 14.575 2.5552C15.6903 3.03645 16.6604 3.68958 17.4854 4.51458C18.3104 5.33958 18.9635 6.30972 19.4448 7.42499C19.926 8.54027 20.1666 9.73194 20.1666 11C20.1666 12.2681 19.926 13.4597 19.4448 14.575C18.9635 15.6903 18.3104 16.6604 17.4854 17.4854C16.6604 18.3104 15.6903 18.9635 14.575 19.4448C13.4597 19.926 12.268 20.1667 11 20.1667ZM8.89165 3.50624C10.2361 5.07986 11.4774 6.15694 12.6156 6.73749C13.7538 7.31805 15.0028 7.60833 16.3625 7.60833C16.7291 7.60833 17.0194 7.60069 17.2333 7.58541C17.4472 7.57013 17.684 7.5243 17.9437 7.44791C17.2562 6.21041 16.3205 5.19444 15.1364 4.39999C13.9524 3.60555 12.5736 3.20833 11 3.20833C10.5875 3.20833 10.1979 3.23888 9.83123 3.29999C9.46456 3.36111 9.15137 3.42986 8.89165 3.50624ZM3.41456 9.21249C4.1479 8.9375 4.98435 8.31493 5.92394 7.34479C6.86352 6.37465 7.53192 5.20208 7.92915 3.82708C6.59998 4.42291 5.59547 5.18298 4.9156 6.10729C4.23574 7.03159 3.7354 8.06666 3.41456 9.21249Z" fill="white" fill-opacity="0.8"/>
</svg>
