<svg width="21" height="21" viewBox="0 0 21 21" fill="none" xmlns="http://www.w3.org/2000/svg">
<path d="M13.7156 14.7219L14.7 13.7375L11.2219 10.2375V5.84062H9.90938V10.7625L13.7156 14.7219ZM10.5 19.25C9.30417 19.25 8.17396 19.0203 7.10938 18.5609C6.04479 18.1016 5.1151 17.4745 4.32031 16.6797C3.52552 15.8849 2.89844 14.9552 2.43906 13.8906C1.97969 12.826 1.75 11.6958 1.75 10.5C1.75 9.30417 1.97969 8.17396 2.43906 7.10938C2.89844 6.04479 3.52552 5.1151 4.32031 4.32031C5.1151 3.52552 6.04479 2.89844 7.10938 2.43906C8.17396 1.97969 9.30417 1.75 10.5 1.75C11.6958 1.75 12.826 1.97969 13.8906 2.43906C14.9552 2.89844 15.8849 3.52552 16.6797 4.32031C17.4745 5.1151 18.1016 6.04479 18.5609 7.10938C19.0203 8.17396 19.25 9.30417 19.25 10.5C19.25 11.6958 19.0203 12.826 18.5609 13.8906C18.1016 14.9552 17.4745 15.8849 16.6797 16.6797C15.8849 17.4745 14.9552 18.1016 13.8906 18.5609C12.826 19.0203 11.6958 19.25 10.5 19.25ZM10.5 17.9375C12.5417 17.9375 14.2917 17.2083 15.75 15.75C17.2083 14.2917 17.9375 12.5417 17.9375 10.5C17.9375 8.45833 17.2083 6.70833 15.75 5.25C14.2917 3.79167 12.5417 3.0625 10.5 3.0625C8.45833 3.0625 6.70833 3.79167 5.25 5.25C3.79167 6.70833 3.0625 8.45833 3.0625 10.5C3.0625 12.5417 3.79167 14.2917 5.25 15.75C6.70833 17.2083 8.45833 17.9375 10.5 17.9375Z" fill="white" fill-opacity="0.8"/>
</svg>
