<svg width="28" height="28" viewBox="0 0 28 28" fill="none" xmlns="http://www.w3.org/2000/svg">
<path d="M19.8333 26.8333C21.7777 26.8333 23.4305 26.1528 24.7916 24.7917C26.1527 23.4306 26.8333 21.7778 26.8333 19.8333H25.0833C25.0833 21.2917 24.5729 22.5313 23.552 23.5521C22.5312 24.5729 21.2916 25.0833 19.8333 25.0833V26.8333ZM1.16663 8.16667H2.91663C2.91663 6.70834 3.42704 5.46876 4.44788 4.44792C5.46871 3.42709 6.70829 2.91667 8.16663 2.91667V1.16667C6.22218 1.16667 4.5694 1.84723 3.20829 3.20834C1.84718 4.56945 1.16663 6.22223 1.16663 8.16667ZM4.11246 23.8875C2.22635 22.0014 1.28329 19.7361 1.28329 17.0917C1.28329 14.4472 2.22635 12.1819 4.11246 10.2958L8.42913 5.95001C8.93468 5.44445 9.55204 5.19167 10.2812 5.19167C11.0104 5.19167 11.6277 5.44445 12.1333 5.95001C12.2111 6.00834 12.2986 6.10556 12.3958 6.24167L12.6875 6.65001L16.0708 3.26667C16.5763 2.76112 17.1937 2.50834 17.9229 2.50834C18.652 2.50834 19.2694 2.76112 19.775 3.26667C19.8916 3.40278 19.9937 3.53889 20.0812 3.67501C20.1687 3.81112 20.2319 3.92778 20.2708 4.02501C20.7569 3.53889 21.3548 3.30556 22.0645 3.32501C22.7743 3.34445 23.3819 3.60695 23.8875 4.11251C24.2763 4.50139 24.5097 4.98264 24.5875 5.55626C24.6652 6.12987 24.5777 6.69862 24.325 7.26251C24.4805 7.32084 24.6263 7.39862 24.7625 7.49584C24.8986 7.59306 25.025 7.70001 25.1416 7.81667C25.6472 8.32223 25.9 8.93959 25.9 9.66876C25.9 10.3979 25.6472 11.0153 25.1416 11.5208L24.4125 12.25C24.5486 12.3083 24.6798 12.3861 24.8062 12.4833C24.9326 12.5806 25.0444 12.6778 25.1416 12.775C25.6472 13.2806 25.9048 13.8979 25.9145 14.6271C25.9243 15.3563 25.6666 15.9736 25.1416 16.4792L17.7041 23.8875C15.818 25.7736 13.5527 26.7167 10.9083 26.7167C8.26385 26.7167 5.99857 25.7736 4.11246 23.8875ZM5.33746 22.6625C6.11524 23.4403 6.98538 24.0188 7.94788 24.3979C8.91038 24.7771 9.89718 24.9667 10.9083 24.9667C11.9194 24.9667 12.9062 24.7771 13.8687 24.3979C14.8312 24.0188 15.7013 23.4403 16.4791 22.6625L23.8875 15.225C24.0625 15.05 24.15 14.841 24.15 14.5979C24.15 14.3549 24.0625 14.1556 23.8875 14C23.7125 13.825 23.5083 13.7375 23.275 13.7375C23.0416 13.7375 22.8375 13.825 22.6625 14L18.55 18.1125L17.2958 16.8875L23.8875 10.2958C24.0625 10.1208 24.15 9.91181 24.15 9.66876C24.15 9.4257 24.0625 9.21667 23.8875 9.04167C23.7125 8.86667 23.5083 8.77917 23.275 8.77917C23.0416 8.77917 22.8375 8.86667 22.6625 9.04167L16.8875 14.8167L15.6625 13.5917L22.6625 6.56251C22.8375 6.38751 22.9201 6.17848 22.9104 5.93542C22.9007 5.69237 22.818 5.49306 22.6625 5.33751C22.4875 5.16251 22.2833 5.07501 22.05 5.07501C21.8166 5.07501 21.6125 5.16251 21.4375 5.33751L14.4083 12.3375L13.1833 11.1125L18.55 5.74584C18.725 5.57084 18.8076 5.36181 18.7979 5.11876C18.7882 4.8757 18.7055 4.67639 18.55 4.52084C18.375 4.34584 18.1659 4.25834 17.9229 4.25834C17.6798 4.25834 17.4708 4.34584 17.2958 4.52084L9.59579 12.2208C10.0041 13.2319 10.1305 14.2625 9.97496 15.3125C9.8194 16.3625 9.37218 17.2958 8.63329 18.1125L7.40829 16.8875C8.03051 16.1681 8.34163 15.3417 8.34163 14.4083C8.34163 13.475 8.03051 12.6486 7.40829 11.9292L10.9083 8.42917C11.0833 8.25417 11.1659 8.04514 11.1562 7.80209C11.1465 7.55903 11.0638 7.35973 10.9083 7.20417C10.7333 7.02917 10.5291 6.94167 10.2958 6.94167C10.0625 6.94167 9.85829 7.02917 9.68329 7.20417L5.33746 11.5208C4.55968 12.2986 3.98121 13.1688 3.60204 14.1313C3.22288 15.0938 3.03329 16.0806 3.03329 17.0917C3.03329 18.1028 3.22288 19.0896 3.60204 20.0521C3.98121 21.0146 4.55968 21.8847 5.33746 22.6625Z" fill="white"/>
</svg>
